<?xml version="1.0" encoding="UTF-8"?>
<!DOCTYPE svg PUBLIC "-//W3C//DTD SVG 1.1//EN" "http://www.w3.org/Graphics/SVG/1.1/DTD/svg11.dtd">
<svg version="1.1" xmlns="http://www.w3.org/2000/svg" xmlns:xlink="http://www.w3.org/1999/xlink" x="0" y="0" width="675.03" height="306" viewBox="0, 0, 675.03, 306">
  <g id="Layer_1">
    <g>
      <g>
        <path d="M131.5,183 C319.5,121 490.5,104 490.5,183" fill-opacity="0" stroke="#656565" stroke-width="3"/>
        <path d="M131.5,183 C319.5,245 490.5,262 490.5,183" fill-opacity="0" stroke="#656565" stroke-width="3"/>
      </g>
      <g>
        <path d="M131.5,182.121 C120.534,233.81 101.474,275.532 83.255,264.915" fill-opacity="0" stroke="#656565" stroke-width="3"/>
        <path d="M131.5,182.121 C91.937,217.146 65.036,254.299 83.255,264.915" fill-opacity="0" stroke="#656565" stroke-width="3"/>
      </g>
      <g>
        <path d="M131.5,182.121 C142.466,130.432 161.526,88.711 179.745,99.327" fill-opacity="0" stroke="#656565" stroke-width="3"/>
        <path d="M131.5,182.121 C171.063,147.096 197.964,109.944 179.745,99.327" fill-opacity="0" stroke="#656565" stroke-width="3"/>
      </g>
      <g>
        <path d="M131.5,182.121 C142.466,233.81 161.526,275.532 179.745,264.915" fill-opacity="0" stroke="#656565" stroke-width="3"/>
        <path d="M131.5,182.121 C171.063,217.146 197.964,254.299 179.745,264.915" fill-opacity="0" stroke="#656565" stroke-width="3"/>
      </g>
      <g>
        <path d="M131.5,182.121 C120.534,130.432 101.474,88.711 83.255,99.327" fill-opacity="0" stroke="#656565" stroke-width="3"/>
        <path d="M131.5,182.121 C91.937,147.096 65.036,109.944 83.255,99.327" fill-opacity="0" stroke="#656565" stroke-width="3"/>
      </g>
      <g>
        <path d="M131.5,183 C65.517,152.546 5.5,144.195 5.5,183" fill-opacity="0" stroke="#656565" stroke-width="3"/>
        <path d="M131.5,183 C65.517,213.454 5.5,221.805 5.5,183" fill-opacity="0" stroke="#656565" stroke-width="3"/>
      </g>
      <g>
        <path d="M243.5,46 L194.221,89.944" fill-opacity="0" stroke="#A3A3A3" stroke-width="4"/>
        <path d="M194.221,89.944 L193.415,84.232 L187.057,96.334 L199.804,91.397 z" fill="#A3A3A3" fill-opacity="1" stroke="#A3A3A3" stroke-width="4" stroke-opacity="1"/>
      </g>
      <g>
        <path d="M243.5,46 L109.427,93.771" fill-opacity="0" stroke="#A3A3A3" stroke-width="4"/>
        <path d="M109.427,93.771 L110.83,88.176 L100.384,96.994 L114.053,97.219 z" fill="#A3A3A3" fill-opacity="1" stroke="#A3A3A3" stroke-width="4" stroke-opacity="1"/>
      </g>
      <g>
        <path d="M508.249,182.121 L624.9,182.121" fill-opacity="0" stroke="#C81919" stroke-width="4"/>
        <path d="M624.9,182.121 L621.7,186.921 L634.5,182.121 L621.7,177.321 z" fill="#C81919" fill-opacity="1" stroke="#C81919" stroke-width="4" stroke-opacity="1"/>
      </g>
      <text transform="matrix(1, 0, 0, 1, 569.015, 251)">
        <tspan x="-66.132" y="-20" font-family="Avenir-Medium" font-size="35" fill="#656565">Forward </tspan>
        <tspan x="-70.018" y="28" font-family="Avenir-Medium" font-size="35" fill="#656565">direction</tspan>
      </text>
      <text transform="matrix(1, 0, 0, 1, 231.015, 29)">
        <tspan x="-82.005" y="6" font-family="Avenir-Medium" font-size="35" fill="#656565">Side lobes</tspan>
      </text>
    </g>
  </g>
</svg>
